PathFileType	4	(X/Y/Z)	C:/Users/beibeiliu/ov580/test_trc/capture2\sequence.31_training_dense_right.trc
DataRate	CameraRate	NumFrames	NumMarkers	Units	OrigDataRate	OrigDataStartFrame	OrigNumFrames
120	120	20	19	mm	120	151	400
Frame#	Time	ThumbCMC			ThumbMCP			ThumbIP			ThumbTip			IndexMCP			IndexPIP			IndexTip			MiddleMCP			MiddlePIP			MiddleTip			RingMCP			RingPIP			RingTip			PinkyMCP			PinkyPIP			PinkyTip			BackHand1			BackHand2			BackHand3	
		X0	Y0	Z0	X1	Y1	Z1	X2	Y2	Z2	X3	Y3	Z3	X4	Y4	Z4	X5	Y5	Z5	X6	Y6	Z6	X7	Y7	Z7	X8	Y8	Z8	X9	Y9	Z9	X10	Y10	Z10	X11	Y11	Z11	X12	Y12	Z12	X13	Y13	Z13	X14	Y14	Z14	X15	Y15	Z15	X16	Y16	Z16	X17	Y17	Z17	X18	Y18	Z18	
150	1.25	138.08	33.0475	30.6207	120.111	33.5349	2.14955	112.867	34.2479	-22.6548	109.358	24.9376	-47.4601	153.376	8.2635	-34.7587	125.464	8.61837	-48.7416	100.801	12.1184	-20.6562	147.122	-15.5835	-34.0202	114.622	-10.9952	-37.7439	105.739	1.35802	-3.7552	139.725	-30.1512	-24.6406	108.104	-19.6638	-23.5484	108.915	-4.89782	3.88252	134.454	-41.4473	-12.9005	107.554	-31.3103	-12.8526	109.875	-11.8594	16.2528	168.041	-26.1019	23.3271	162.884	-19.2398	53.3772	168.988	6.75594	32.2982	
151	1.25833	137.286	33.5996	28.0384	114.855	35.2194	4.62489	108.641	30.6979	-22.8872	102.257	20.0324	-43.3625	153.699	9.94277	-33.8855	126.551	5.63651	-47.892	101.117	9.54077	-21.4056	147.807	-15.4075	-31.3048	115.734	-10.1536	-39.5351	103.938	3.94079	-8.12496	134.709	-32.1332	-27.308	106.131	-20.2557	-22.2904	107.613	-7.22506	5.55152	131.389	-45.5205	-12.4979	105.176	-28.2878	-10.023	111.61	-12.1566	18.3338	166.153	-25.4336	24.5758	160.521	-22.2255	58.4838	167.713	7.31736	33.3809	
152	1.26667	136.096	30.0178	30.655	113.288	33.9456	7.05533	102.56	33.2726	-24.2628	98.6077	20.4876	-43.0614	153.614	6.39942	-32.8318	126.024	7.34233	-48.5254	102.551	10.1813	-24.531	144.578	-15.3157	-35.4846	115.074	-6.95015	-38.9955	102.952	1.25924	-5.47598	136.77	-30.4088	-24.1888	109.565	-19.2411	-25.8846	107.414	-4.02636	4.03322	131.013	-41.1978	-11.5965	103.12	-26.8874	-6.70603	109.636	-11.3427	16.5186	165.305	-30.4493	26.6076	158.618	-17.5474	57.6895	166.35	8.68782	35.7109	
153	1.275	136.003	32.159	33.1745	112.946	34.1675	6.18767	102.406	32.3063	-23.3727	95.0975	20.2306	-42.0331	153.78	10.3616	-35.4889	126.283	8.38955	-49.431	102.62	10.4256	-26.0548	148.295	-12.064	-31.5578	113.116	-7.8469	-37.6752	103.794	6.99466	-5.73871	135.093	-27.7122	-27.3147	107.023	-17.5403	-22.9816	106.73	-4.51964	7.26621	129.405	-41.0193	-12.7825	104.306	-25.0326	-7.76218	113.865	-7.43231	16.2713	164.221	-29.1622	24.9589	161.283	-21.3999	54.3151	166.241	6.49765	36.5054	
154	1.28333	135.93	30.6748	32.5365	113.299	33.569	5.65309	101.996	30.8747	-20.4662	95.7306	18.3186	-42.2196	152.414	7.16353	-36.5456	124.959	10.1895	-49.4454	103.013	11.595	-24.8799	145.952	-13.9301	-32.872	115.444	-8.8971	-39.7574	103.082	6.83257	-6.18515	136.011	-29.5888	-23.9984	105.855	-21.1141	-22.8002	106.306	-1.80965	5.61368	128.307	-42.4994	-10.7831	104.037	-26.9491	-8.92498	109.065	-8.7481	17.4546	161.901	-26.1261	26.6043	158.286	-22.8365	56.9217	168.312	8.03533	34.7569	
155	1.29167	136.361	29.8808	33.2404	113.655	33.8966	5.60053	102.454	32.141	-21.9187	97.8684	15.9207	-39.7355	153.713	5.61085	-35.3875	124.913	6.69476	-47.7096	103.605	12.2716	-29.2505	145.764	-12.2742	-35.1705	112.161	-9.66437	-38.408	102.256	5.71359	-5.81801	134.747	-31.9209	-22.1399	104.379	-19.3888	-21.8536	107.557	-2.42335	8.5768	129.087	-43.3855	-10.372	102.828	-25.3113	-6.60455	112.095	-7.24816	18.5413	163.011	-30.9621	24.0389	157.373	-22.8988	56.4512	166.132	5.5633	35.8726	
156	1.3	136.483	31.966	30.6518	113.607	32.9064	8.45737	102.943	31.0233	-18.4123	97.461	19.7531	-39.5409	154.312	7.79351	-35.4473	124.805	8.08882	-49.1984	104.052	12.0582	-28.166	145.006	-15.2407	-33.5307	117.015	-7.3869	-41.7865	101.921	2.91683	-5.09423	134.001	-27.8133	-27.1332	105.685	-15.2081	-21.5322	108.814	-1.52678	7.74612	127.962	-42.9276	-10.6306	105.427	-24.7107	-9.37522	112.13	-7.39947	20.1032	162.659	-29.1468	23.2329	157.755	-20.2791	56.0238	168.846	4.3574	34.8902	
157	1.30833	135.48	33.5317	32.552	114.469	32.9198	2.37682	103.992	31.5101	-23.2412	99.1293	16.4146	-41.9141	154.901	6.59611	-32.1138	127.08	10.7212	-49.8656	103.169	13.8798	-25.0105	144.666	-12.9884	-35.7129	112.912	-8.89011	-37.7736	101.777	2.51937	-4.64661	133.87	-31.8333	-23.7474	106.606	-18.244	-23.9745	105.928	-4.93562	8.67144	128.129	-43.6458	-11.3496	105.083	-25.4606	-9.76443	109.381	-9.90753	17.522	163.219	-28.4779	28.5546	160.489	-19.5837	57.4373	167.751	7.93171	34.0723	
158	1.31667	136.287	31.4659	27.4079	114.191	35.366	5.75182	104.583	31.3078	-21.7605	98.6034	19.6587	-44.9306	153.983	5.83703	-35.3101	128.329	10.4874	-49.8493	102.344	10.6545	-25.0216	146.028	-15.6779	-32.6047	114.291	-9.84244	-39.5711	101.781	0.994261	-5.39097	135.19	-30.2133	-24.5893	107.813	-18.4365	-23.9948	109.523	-0.638345	8.24162	128.322	-44.5788	-11.7824	104.998	-24.1426	-9.124	108.999	-12.1925	19.4431	163.66	-29.8967	23.534	158.442	-19.3477	54.0804	167.503	8.03047	32.7729	
159	1.325	136.669	33.4598	31.5038	117.013	31.3799	4.99436	107.672	33.081	-18.485	101.714	20.7514	-45.0056	152.833	7.8082	-35.6737	127.958	7.99556	-48.9416	101.723	13.4371	-25.1423	147.029	-14.6926	-31.4268	110.833	-9.49486	-36.1923	102.418	1.21715	-6.74867	136.361	-28.332	-23.6361	106.084	-17.495	-23.0752	106.867	-4.53452	7.22267	131.18	-42.1131	-10.3519	103.119	-26.9161	-8.79523	111.831	-9.43544	15.4835	161.97	-30.7393	28.1128	157.496	-24.4126	54.9354	168.205	1.98749	32.7945	
160	1.33333	137.706	28.5433	28.9176	117.063	37.2584	5.30227	109.468	39.3103	-20.875	104.973	27.1998	-46.1916	153.367	7.96253	-34.8177	127.085	7.16144	-48.6755	99.8821	11.7824	-23.8582	144.382	-12.863	-34.9681	112.534	-5.98904	-37.5512	103.429	1.87802	-6.66907	134.057	-28.9102	-27.1917	107.256	-16.7923	-24.2868	109.009	-3.51294	7.7973	128.212	-43.694	-12.2018	105.746	-27.9111	-12.0773	108.69	-12.1181	14.9899	162.874	-28.561	28.4794	158.397	-24.7037	54.3318	167.169	6.65704	34.4111	
161	1.34167	137.762	31.8426	32.9397	120.798	37.5468	4.15237	115.835	38.2513	-24.4622	111.616	32.0308	-42.8106	154.374	6.70499	-33.5463	126.36	5.29821	-48.7059	100.237	12.5532	-25.321	144.967	-12.0907	-35.0201	115.041	-11.5951	-38.8862	103.8	5.51826	-8.11225	134.486	-29.9209	-25.1175	106.052	-17.9832	-24.1077	105.468	-4.42901	4.26125	128.117	-42.2864	-12.6858	102.736	-29.931	-10.6599	107.399	-12.4003	16.1876	163.358	-27.0128	24.7184	158.432	-21.4105	58.8237	168.064	6.5062	36.1722	
162	1.35	140.209	31.1367	32.0909	125.95	39.9221	5.00863	123.097	38.6048	-20.9268	119.809	31.6165	-42.4163	154.298	5.20989	-31.3593	127.87	4.29047	-49.364	102.137	13.8695	-32.9433	144.959	-14.1652	-34.5348	115.266	-7.60675	-40.9349	105.488	6.52123	-5.35235	134.777	-27.6866	-26.6151	107.285	-17.068	-27.0136	108.898	-2.62927	5.65241	129.049	-46.465	-11.6107	103.642	-28.0677	-12.8104	109.689	-11.0631	14.6844	161.566	-31.71	24.0639	158.404	-24.9045	57.0287	166.611	6.70596	32.0757	
163	1.35833	139.174	34.1926	35.4703	130.219	38.368	4.48489	128.305	36.1534	-22.201	126.434	29.7107	-43.4239	152.408	8.45215	-36.9151	127.384	6.21627	-49.9005	100.344	12.4681	-27.5292	147.166	-11.6499	-34.1209	114.432	-11.0601	-40.4818	104.094	4.65308	-10.2644	134.688	-30.0958	-26.8316	104.907	-20.3419	-24.9887	105.028	-6.53513	4.59731	128.827	-43.3243	-13.287	104.593	-27.7066	-13.7697	108.517	-9.30194	15.063	163.122	-27.7848	25.5261	159.618	-23.579	54.6399	164.569	6.68012	36.519	
164	1.36667	139.189	30.991	36.1876	131.935	39.8444	7.25526	133.464	37.2402	-22.1884	131.302	28.1154	-39.4732	153.836	4.97441	-33.5853	125.399	8.74105	-50.7972	102.567	13.012	-31.3479	145.168	-11.0344	-35.3621	114.584	-7.64752	-40.6704	103.583	2.69294	-6.22253	134.653	-29.1058	-27.1934	105.856	-20.3477	-24.9296	106.838	-6.03781	6.42177	130.229	-44.1875	-13.1006	101.768	-32.5658	-12.1136	107.39	-10.7805	16.5063	163.408	-29.777	25.9915	157.734	-23.6547	58.896	163.758	6.65346	37.1226	
165	1.375	139.563	30.8578	39.7344	133.547	40.4847	8.94281	136.708	39.4968	-22.2488	135.042	25.2752	-40.3182	154.131	8.85535	-32.0178	125.914	7.96667	-50.8531	102.836	13.7371	-31.7346	145.786	-15.3915	-31.1548	112.381	-10.1826	-38.5456	101.7	-0.130522	-5.73171	134.696	-31.5178	-25.6974	108.365	-19.5271	-27.5212	105.486	-8.40609	6.57836	128.937	-39.4759	-14.9268	104.581	-30.0462	-14.3639	104.862	-12.8571	17.0708	163.116	-26.6669	28.9924	157.365	-24.6828	56.279	163.995	6.20691	36.5319	
166	1.38333	140.597	30.5435	36.2819	135.181	38.9061	9.33709	136.344	41.4926	-15.9921	136.721	27.4205	-36.1206	153.925	4.83841	-31.2628	127.246	5.66518	-49.7702	103.025	13.6303	-31.7831	145.381	-10.7416	-34.3485	113.941	-6.07981	-40.4903	102.187	4.77805	-6.05414	136.419	-29.4682	-25.0982	105.141	-21.7283	-24.6264	104.223	-7.88395	5.16472	132.64	-40.414	-10.7673	103.207	-31.5069	-12.9442	105.867	-12.7479	11.6434	161.686	-25.717	25.192	156.832	-23.4261	55.0974	165.505	6.74043	37.0493	
167	1.39167	140.043	33.9799	38.8648	135.466	40.2155	11.8079	139.59	39.3644	-20.1218	136.747	27.5881	-36.5786	155.759	9.59983	-32.866	132.085	7.70467	-51.6204	102.799	12.9285	-29.7537	146.676	-9.06091	-33.2484	116.134	-7.66767	-41.4824	100.011	2.05795	-6.1233	136.258	-29.2931	-24.6056	105.06	-18.0422	-25.8267	103.332	-8.28213	5.48655	130.051	-42.7092	-11.9394	104.828	-29.3146	-14.184	105.896	-13.9492	14.2235	160.725	-27.376	25.6107	157.304	-24.4033	57.9354	166.017	4.56644	37.3902	
168	1.4	139.108	34.8853	40.7064	135.229	37.579	11.3309	137.891	37.6995	-14.4007	138.309	26.2112	-35.766	155.965	9.44446	-29.41	129.016	6.07617	-49.886	104.129	12.9384	-32.086	147.653	-9.89178	-31.2925	116.904	-7.16791	-42.5485	99.9884	0.558035	-9.84386	135.067	-31.015	-24.7916	102.617	-19.0189	-24.154	105.08	-4.66015	6.45815	126.279	-43.3533	-14.9577	104.148	-26.3133	-12.7626	104.214	-12.1933	15.5449	161.552	-28.6315	27.8893	158.073	-22.9314	54.902	163.668	3.85381	40.0178	
169	1.40833	139.738	33.3934	40.2066	136.059	41.461	10.7138	138.041	39.8078	-14.9028	138.27	29.6612	-40.8941	153.502	4.84325	-34.0023	131.509	7.2934	-50.6472	104.518	14.1708	-34.2239	147.49	-10.0256	-32.112	113.744	-5.12205	-41.7192	99.9238	3.41932	-8.84614	135.39	-28.3217	-24.4781	103.876	-17.6605	-24.9112	105.461	-4.01206	6.40036	126.218	-42.396	-14.9571	102.881	-30.1982	-13.4286	107.639	-9.26358	15.3909	162.079	-29.7095	26.0537	155.357	-19.5017	58.8795	162.674	5.23499	39.4822	
